<svg width="50" height="50" viewBox="0 0 50 50" fill="none" xmlns="http://www.w3.org/2000/svg">
<path d="M25 49C38.2548 49 49 38.2548 49 25C49 11.7452 38.2548 1 25 1C11.7452 1 1 11.7452 1 25C1 38.2548 11.7452 49 25 49Z" fill="#2563EB" stroke="white"/>
<path d="M32.5 12.5H17.5C16.1193 12.5 15 13.6193 15 15V35C15 36.3807 16.1193 37.5 17.5 37.5H32.5C33.8807 37.5 35 36.3807 35 35V15C35 13.6193 33.8807 12.5 32.5 12.5Z" fill="white"/>
<path d="M18.5 17.5H31.5" stroke="#2563EB"/>
<path d="M18.5 22.5H31.5" stroke="#2563EB"/>
<path d="M18.5 27.5H27.5" stroke="#2563EB"/>
<path d="M24 11.5C26.2091 11.5 28 9.70914 28 7.5C28 5.29086 26.2091 3.5 24 3.5C21.7909 3.5 20 5.29086 20 7.5C20 9.70914 21.7909 11.5 24 11.5Z" fill="white"/>
<path d="M22.5 6.5L23.5 7.5L25.5 5.5" stroke="#2563EB"/>
</svg>
